<svg xmlns="http://www.w3.org/2000/svg" viewBox="0 0 1500 1500"><defs><style>.cls-1{fill:#009fe3;}.cls-2{fill:none;stroke:#009fe3;stroke-miterlimit:10;}</style></defs><g id="Logo"><path class="cls-1" d="M1121.36,341.55V143c0-8-.87-23.68-11.71-35.81-14.54-16.23-38.84-16.64-50.35-16L469.35,89.81c-11.1.2-32.06,2.31-45.26,17.36-10.79,12.33-11.72,27.9-11.72,35.81V341.55h709ZM899.42,834.76l266.64-5.13c21.58,4.36,21.07,25.94,22.09,25.94v231.19c-1,0,87.24-.56,139.75,0s50.35-54.66,50.35-54.66V472.3c0-63-54.67-74.23-54.67-74.23H220.43s-54.66,11.2-54.66,74.23v559.8s-4.32,55.18,48.24,54.66,140.82,0,141.85,0q.22-114.66.41-229.34a26,26,0,0,1,5.24-17.62A25.71,25.71,0,0,1,376,830.6l266.59,4.16Zm-542.84,486q-.39-87.39-.72-174.78c-1.75,0-69.72.67-163.22,0s-89-84.41-89-84.41-1.08-546.49,0-630,88.27-90.52,88.27-90h158.8V113.18s4.21-82.45,93.76-83.89,148.07,0,148.07,0c149.09.36,348.64,0,348.64,0v.46c11.25-.21,65.61-1.18,144.06.05,88.47,1.39,92.63,82.87,92.63,82.87V341.55h168l1.49.16a114.57,114.57,0,0,1,15.36,3,9.76,9.76,0,0,1,1.7.46l4.93,1.49q4.55,1.47,9.4,3.54c24.61,10.59,53.64,33.3,54.25,81.28,1,83.54,0,630,0,630s4.58,83.69-89,84.41-161.48,0-161,0V1319.5c2,0,2,85.64-100.5,86.72-79.06.77-212.9-.36-269.87-.92-1.91,0-3.65,0-5.35-.06-13.61-.1-21.63-.2-21.63-.2l-17.57,0c-5.7,0-11.4,0-17.11,0l-12.48.15-6.63,0c-51.48.52-194.77,1.8-277.74,1-22-.26-58.05-4.26-79.94-30.77C359.1,1357.05,356.68,1334.55,356.58,1320.73Zm700.05,27.33c72.85-.72,67.61-57.08,67.61-57.08s-.36-312.83,0-358S1084,891.28,1084,891.28H453.58s-40.64-3.5-40.28,41.66,0,358,0,358-5.24,56.36,67.61,57.08c45.52.47,195.54.36,301.68.21,3.65,0,7.35,0,11,0C894.64,1348.42,1016.4,1348.47,1056.63,1348.06Z"/><path class="cls-1" d="M1082.31,1196.56c.33,36.63-38.17,41-38.17,41l-549.05-.74c-2.27.2-16.95,1.23-28.1-9.71-11.31-11.11-10-25.93-10-28.79-.37-36.62,38.12-41.11,38.12-41.11h549.15C1053.59,1157.27,1082,1159.93,1082.31,1196.56Z"/><path class="cls-2" d="M1044.14,1157.26H495.09s-38.49,4.49-38.12,41.11c0,2.86-1.29,17.68,10,28.79,11.15,10.94,25.83,9.91,28.1,9.71"/><path class="cls-2" d="M495.09,1236.87l549.05.74s38.5-4.42,38.17-41-28.72-39.29-38.07-39.3"/><path class="cls-1" d="M1082.31,1022.65c.33,36.63-38.17,41.06-38.17,41.06L495.09,1063c-2.27.2-16.95,1.24-28.1-9.71-11.31-11.11-10-25.93-10-28.79-.37-36.62,38.12-41.11,38.12-41.11h549.15C1053.59,983.36,1082,986,1082.31,1022.65Z"/><path class="cls-2" d="M1044.14,983.35H495.09s-38.49,4.49-38.12,41.11c0,2.86-1.29,17.68,10,28.79,11.15,11,25.83,9.91,28.1,9.71"/><path class="cls-2" d="M495.09,1063l549.05.75s38.5-4.43,38.17-41.06-28.72-39.29-38.07-39.3"/></g></svg>